# xmcd CD database file
#
# Track frame offsets:
#	150
#	1203
#	2307
#	14750
#	25357
#	41159
#	53850
#	72751
#	89750
#	100646
#	112934
#	127551
#	137936
#	152637
#	165133
#	181036
#	194548
#	206773
#	218170
#	232945
#	245101
#	257816
#	270145
#	279006
#	284799
#	290410
#	294354
#	307165
#	319939
#
# Disc length: 4407 seconds
#
# Revision: 3
# Processed by: cddbd v1.4PL0 Copyright (c) Steve Scherf et al.
# Submitted via: CDex 1.50
#
DISCID=9711351d
DTITLE=Jerry Bergonzi - Melodic Rhythms
DYEAR=2000
DGENRE=Jazz
TTITLE0=Tuning Note - A concert
TTITLE1=Tuning Note - Bb concert
TTITLE2=Sleep Walk (slow)
TTITLE3=Sleep Walk (fast)
TTITLE4=Wine Tasting (slow)
TTITLE5=Wine Tasting (fast)
TTITLE6=Together Alone (slow)
TTITLE7=Together Alone (fast)
TTITLE8=It's No One But You (slow)
TTITLE9=It's No One But You (fast)
TTITLE10=It Happened (slow)
TTITLE11=It Happened (fast)
TTITLE12=Into Somewhere (slow)
TTITLE13=Into Somewhere (fast)
TTITLE14=Come and Gone (slow)
TTITLE15=Come and Gone (fast)
TTITLE16=One Heart (slow)
TTITLE17=One Heart (fast)
TTITLE18=Twinkle, Twinkle (slow)
TTITLE19=Twinkle, Twinkle (fast)
TTITLE20=There Is Another You (slow)
TTITLE21=There Is Another You (fast)
TTITLE22=Demo - 3 Notes per Bar
TTITLE23=Demo - Triplets
TTITLE24=Demo - 3/4, 5/4, 7/4, over 4/4
TTITLE25=Demo - Polyrhythms 5 over 2
TTITLE26=Demo - Various Rhythmic Devices
TTITLE27=Demo - More Rhythmic Devices
TTITLE28=Demo - More Rhythmic Devices 2
EXTD=YEAR: 2000
EXTT0=
EXTT1=
EXTT2=
EXTT3=
EXTT4=
EXTT5=
EXTT6=
EXTT7=
EXTT8=
EXTT9=
EXTT10=
EXTT11=
EXTT12=
EXTT13=
EXTT14=
EXTT15=
EXTT16=
EXTT17=
EXTT18=
EXTT19=
EXTT20=
EXTT21=
EXTT22=
EXTT23=
EXTT24=
EXTT25=
EXTT26=
EXTT27=
EXTT28=
PLAYORDER=
